HIERARCHY
ROOT Hips
{
OFFSET -0.1795 -22.3333 2.8219000000000003
	CHANNELS 6 Xposition Yposition Zposition Zrotation Yrotation Xrotation 
	JOINT LeftUpLeg
	{
OFFSET 6.952 -9.140600000000001 -0.6815
		CHANNELS 3 Zrotation Yrotation Xrotation
		JOINT LeftLeg
		{
OFFSET 3.4277 -37.5199 -0.4496
			CHANNELS 3 Zrotation Yrotation Xrotation
			JOINT LeftFoot
			{
OFFSET -1.3596000000000001 -39.7961 -4.3693
				CHANNELS 3 Zrotation Yrotation Xrotation
				JOINT LeftToe
				{
OFFSET 2.6358 -5.5791 11.9288
					CHANNELS 3 Zrotation Yrotation Xrotation
					End Site
					{
OFFSET 0.0 0.0 0.0
					}
				}
			}
		}
	}
	JOINT RightUpLeg
	{
OFFSET -6.7669999999999995 -9.052200000000001 -0.432
		CHANNELS 3 Zrotation Yrotation Xrotation
		JOINT RightLeg
		{
OFFSET -3.8289999999999997 -38.2569 -0.885
			CHANNELS 3 Zrotation Yrotation Xrotation
			JOINT RightFoot
			{
OFFSET 1.5774 -39.8415 -4.2312
				CHANNELS 3 Zrotation Yrotation Xrotation
				JOINT RightToe
				{
OFFSET -2.5372 -4.8144 12.3348
					CHANNELS 3 Zrotation Yrotation Xrotation
					End Site
					{
OFFSET 0.0 0.0 0.0
					}
				}
			}
		}
	}
	JOINT Spine
	{
OFFSET -0.2533 10.8963 -2.6696
		CHANNELS 3 Zrotation Yrotation Xrotation
		JOINT Spine1
		{
OFFSET 0.5487 13.517999999999999 0.1092
			CHANNELS 3 Zrotation Yrotation Xrotation
			JOINT Spine2
			{
OFFSET 0.1457 5.292199999999999 2.5425
				CHANNELS 3 Zrotation Yrotation Xrotation
				JOINT Neck
				{
OFFSET -0.2778 21.387 -4.2857
					CHANNELS 3 Zrotation Yrotation Xrotation
					JOINT Head
					{
OFFSET 0.5152 6.497 5.1349
						CHANNELS 3 Zrotation Yrotation Xrotation
						End Site
						{
OFFSET 0.0 0.0 0.0
						}
					}
				}
				JOINT LeftShoulder
				{
OFFSET 7.8845 12.1749 -3.4090000000000003
					CHANNELS 3 Zrotation Yrotation Xrotation
					JOINT LeftArm
					{
OFFSET 9.0977 3.0469 -0.8867999999999999
						CHANNELS 3 Zrotation Yrotation Xrotation
						JOINT LeftForeArm
						{
OFFSET 25.9612 -1.2772000000000001 -2.7456
							CHANNELS 3 Zrotation Yrotation Xrotation
							JOINT LeftHand
							{
OFFSET 24.9234 0.8986 -0.1171
								CHANNELS 3 Zrotation Yrotation Xrotation
								End Site
								{
OFFSET 0.0 0.0 0.0
								}
							}
						}
					}
				}
				JOINT RightShoulder
				{
OFFSET -8.1759 11.8833 -3.8614999999999995
					CHANNELS 3 Zrotation Yrotation Xrotation
					JOINT RightArm
					{
OFFSET -9.6012 3.2550999999999997 -0.9143
						CHANNELS 3 Zrotation Yrotation Xrotation
						JOINT RightForeArm
						{
OFFSET -25.374200000000002 -1.3329 -2.1401
							CHANNELS 3 Zrotation Yrotation Xrotation
							JOINT RightHand
							{
OFFSET -25.5298 0.7772 -0.5559
								CHANNELS 3 Zrotation Yrotation Xrotation
								End Site
								{
OFFSET 0.0 0.0 0.0
								}
							}
						}
					}
				}
			}
		}
	}
}
MOTION
Frames: 8
Frame Time: 0.050000
0.0 97.1654 0.0 1.423636 -13.513524 0.745274 -1.847382 -1.988661 -24.645853 -0.096625 0.130023 23.158047 1.770877 5.863437 11.193169 0.000000 0.000000 0.000000 0.647843 -0.696042 8.250544 -2.191632 2.289695 22.390210 4.204518 0.524453 13.319101 0.000000 0.000000 0.000000 2.892876 -0.017965 -0.144290 -4.496572 1.999990 -2.809529 0.744977 12.453953 10.348097 6.232931 -2.337788 -15.106841 0.000000 0.000000 0.000000 -13.767824 9.587995 -6.544729 -45.248784 16.215651 -11.339572 -117.326364 -44.811790 70.126490 0.000000 0.000000 0.000000 7.564626 -4.912904 -2.255605 52.646066 0.077498 -5.416234 123.833881 54.435486 96.086763 0.000000 0.000000 0.000000
0.2929 97.7662 1.0284 0.242221 -12.708754 1.233688 -4.168766 -2.315038 -21.662915 1.891388 -0.621134 21.772374 0.123477 2.730949 9.153620 0.000000 0.000000 0.000000 1.363145 -0.565181 5.390109 -1.228279 3.618533 34.830556 2.598527 -1.483217 12.079607 0.000000 0.000000 0.000000 3.929355 0.057037 -1.169318 -4.596406 2.007116 -3.632953 1.430905 13.672874 11.369978 6.969014 -2.619454 -15.265368 0.000000 0.000000 0.000000 -14.083412 5.611302 -5.015192 -43.569631 18.457772 -11.629857 -121.393634 -45.222897 74.388137 0.000000 0.000000 0.000000 5.978025 -7.618231 -3.183004 55.346929 -2.690883 -6.748444 119.148648 45.903447 80.506841 0.000000 0.000000 0.000000
0.4809 95.6546 1.7703 0.002111 -12.989658 -0.827409 -6.310552 -2.119107 -15.759778 2.359181 -0.719278 23.427975 0.374574 2.098724 4.783116 0.000000 0.000000 0.000000 1.954626 -0.145669 0.661296 1.064775 5.447616 52.543484 0.759874 -4.872305 12.698617 0.000000 0.000000 0.000000 4.497417 0.022581 -0.359583 -4.449952 2.048713 -1.804821 -0.595553 13.303927 10.591084 7.166225 -3.041161 -13.682801 0.000000 0.000000 0.000000 -12.404073 4.430572 -4.060998 -46.358051 14.836151 -11.243020 -117.740784 -48.865712 75.156948 0.000000 0.000000 0.000000 9.467342 -4.919280 -2.242108 53.800831 -5.093434 -7.742797 117.465466 47.900751 80.589847 0.000000 0.000000 0.000000
0.5039 91.7741 1.5861 0.609254 -11.190148 -3.088892 -8.704592 -2.154066 -13.236522 3.399995 -1.199101 29.453904 1.426569 0.399426 -8.590129 0.000000 0.000000 0.000000 1.175220 0.804772 -7.655973 6.155343 4.112831 72.816373 -2.852870 -10.417767 10.630752 0.000000 0.000000 0.000000 3.414841 -0.211394 3.281886 -4.000024 1.919618 -0.486421 -2.266653 10.679192 10.668092 8.677106 -3.325509 -18.587425 0.000000 0.000000 0.000000 -15.267812 1.453218 -2.979822 -44.676872 8.869730 -8.666697 -119.844148 -55.620265 87.169382 0.000000 0.000000 0.000000 11.846918 -5.205452 -2.665605 52.044677 -5.933010 -8.070041 121.155286 47.541682 83.478140 0.000000 0.000000 0.000000
0.31970000000000004 88.67819999999999 0.6689999999999999 0.066347 -9.501183 -4.489372 -9.671808 -1.963385 -11.064732 3.865698 -1.614023 34.819249 3.209313 1.485111 -17.734227 0.000000 0.000000 0.000000 1.414033 2.090461 -17.264554 10.092926 -0.043707 85.740931 -6.095449 -16.001695 7.587313 0.000000 0.000000 0.000000 3.052974 -0.443488 7.678530 -3.058002 1.504752 0.507093 -3.642250 5.883262 8.984656 7.545886 -2.775089 -20.219671 0.000000 0.000000 0.000000 -17.753363 -1.945659 -0.913421 -43.755162 0.908653 -5.791468 -122.786380 -64.187863 102.662251 0.000000 0.000000 0.000000 13.538796 -3.283667 -2.437369 51.072277 -7.494356 -8.485621 113.427131 48.183272 72.474110 0.000000 0.000000 0.000000
0.0368 88.8889 0.0985 -0.726003 -7.380135 -4.245692 -8.776260 -1.316054 -7.558825 4.838594 -2.254808 31.323095 3.214541 1.552452 -16.431396 0.000000 0.000000 0.000000 2.489442 3.699800 -26.870226 10.429406 -2.258622 86.725832 -7.474903 -18.717524 7.310811 0.000000 0.000000 0.000000 3.195983 -0.545286 9.088762 -0.224878 0.099848 0.413164 -5.900887 1.758136 8.214226 6.218203 -2.162821 -21.234434 0.000000 0.000000 0.000000 -19.092665 -4.265417 0.822754 -42.800259 -7.000018 -3.151076 -131.320508 -70.658553 121.179211 0.000000 0.000000 0.000000 13.859205 -2.902957 -2.733038 48.707631 -11.331086 -9.417133 110.103264 46.799799 65.194885 0.000000 0.000000 0.000000
-0.3154 91.8193 0.023 -2.042536 -5.908587 -1.854784 -6.001012 -0.398881 -2.753416 4.367640 -1.821258 21.978165 2.729557 2.621978 -9.996072 0.000000 0.000000 0.000000 3.603694 5.154010 -34.403084 8.824629 -1.669843 77.189447 -8.673383 -21.105876 10.956928 0.000000 0.000000 0.000000 4.789360 -0.637300 8.091065 -0.311294 0.153550 -1.165172 -5.351040 -2.751211 9.680490 4.655209 -1.678972 -22.443472 0.000000 0.000000 0.000000 -18.077117 -5.099513 2.358856 -43.449064 -12.046537 -1.852382 -145.769504 -71.427496 143.117953 0.000000 0.000000 0.000000 9.839416 -5.708258 -3.852799 46.261851 -14.720862 -10.209787 109.953142 40.002805 53.122461 0.000000 0.000000 0.000000
-0.6524 95.443 0.2524 -4.065341 -4.874192 0.797593 -2.603957 0.337669 2.695203 3.883106 -1.347567 14.804371 0.391569 0.829564 -0.044111 0.000000 0.000000 0.000000 6.177388 6.053801 -35.866856 5.414266 0.374704 58.968297 -6.429674 -17.125728 9.917662 0.000000 0.000000 0.000000 6.478643 -0.573859 5.372800 1.429650 -0.663581 -0.686132 -5.713919 -6.252229 8.601936 6.182810 -2.921013 -21.336831 0.000000 0.000000 0.000000 -16.202451 -2.991928 1.813229 -45.082241 -12.344846 -1.731150 -147.629958 -67.591756 145.233753 0.000000 0.000000 0.000000 6.702272 -5.468083 -3.352609 43.868557 -17.652377 -10.595973 110.659495 38.506738 49.422265 0.000000 0.000000 0.000000
